<mxfile host="Electron" modified="2024-03-24T08:30:52.876Z" agent="Mozilla/5.0 (Windows NT 10.0; Win64; x64) AppleWebKit/537.36 (KHTML, like Gecko) draw.io/21.2.1 Chrome/112.0.5615.87 Electron/24.1.2 Safari/537.36" etag="-ocigj2OgfpKiax8-lU-" version="21.2.1" type="device">
  <diagram name="第 1 页" id="KjHsa1RuTMp1KDAT6KxI">
    <mxGraphModel dx="917" dy="674" grid="1" gridSize="10" guides="1" tooltips="1" connect="1" arrows="1" fold="1" page="1" pageScale="1" pageWidth="3300" pageHeight="2339" background="none" math="0" shadow="0">
      <root>
        <mxCell id="0" />
        <mxCell id="1" parent="0" />
        <mxCell id="cctHgGJsLOtrq9aGnDQg-1" value="Mux" style="shadow=0;dashed=0;align=center;html=1;strokeWidth=1;shape=mxgraph.electrical.abstract.mux2;whiteSpace=wrap;flipV=1;" vertex="1" parent="1">
          <mxGeometry x="630" y="385" width="80" height="120" as="geometry" />
        </mxCell>
        <mxCell id="cctHgGJsLOtrq9aGnDQg-5" style="edgeStyle=orthogonalEdgeStyle;rounded=0;orthogonalLoop=1;jettySize=auto;html=1;exitX=1;exitY=0.5;exitDx=0;exitDy=0;exitPerimeter=0;entryX=0.375;entryY=1;entryDx=10;entryDy=0;entryPerimeter=0;endArrow=none;endFill=0;" edge="1" parent="1" source="cctHgGJsLOtrq9aGnDQg-2" target="cctHgGJsLOtrq9aGnDQg-1">
          <mxGeometry relative="1" as="geometry" />
        </mxCell>
        <mxCell id="cctHgGJsLOtrq9aGnDQg-2" value="S[2]" style="html=1;shadow=0;dashed=0;align=center;verticalAlign=middle;shape=mxgraph.arrows2.arrow;dy=0;dx=10;notch=0;" vertex="1" parent="1">
          <mxGeometry x="462" y="350" width="60" height="30" as="geometry" />
        </mxCell>
        <mxCell id="cctHgGJsLOtrq9aGnDQg-6" style="edgeStyle=orthogonalEdgeStyle;rounded=0;orthogonalLoop=1;jettySize=auto;html=1;exitX=1;exitY=0.5;exitDx=0;exitDy=0;exitPerimeter=0;entryX=0;entryY=0.21666666666666667;entryDx=0;entryDy=3;entryPerimeter=0;endArrow=none;endFill=0;" edge="1" parent="1" source="cctHgGJsLOtrq9aGnDQg-3" target="cctHgGJsLOtrq9aGnDQg-1">
          <mxGeometry relative="1" as="geometry" />
        </mxCell>
        <mxCell id="cctHgGJsLOtrq9aGnDQg-19" value="2" style="edgeLabel;html=1;align=center;verticalAlign=middle;resizable=0;points=[];" vertex="1" connectable="0" parent="cctHgGJsLOtrq9aGnDQg-6">
          <mxGeometry x="0.2578" y="3" relative="1" as="geometry">
            <mxPoint y="3" as="offset" />
          </mxGeometry>
        </mxCell>
        <mxCell id="cctHgGJsLOtrq9aGnDQg-3" value="S[1]" style="html=1;shadow=0;dashed=0;align=center;verticalAlign=middle;shape=mxgraph.arrows2.arrow;dy=0;dx=10;notch=0;" vertex="1" parent="1">
          <mxGeometry x="462" y="461" width="60" height="30" as="geometry" />
        </mxCell>
        <mxCell id="cctHgGJsLOtrq9aGnDQg-4" value="S[0]" style="html=1;shadow=0;dashed=0;align=center;verticalAlign=middle;shape=mxgraph.arrows2.arrow;dy=0;dx=10;notch=0;" vertex="1" parent="1">
          <mxGeometry x="462" y="570" width="60" height="30" as="geometry" />
        </mxCell>
        <mxCell id="cctHgGJsLOtrq9aGnDQg-7" value="&quot;10&quot;" style="text;html=1;align=center;verticalAlign=middle;resizable=0;points=[];autosize=1;strokeColor=none;fillColor=none;" vertex="1" parent="1">
          <mxGeometry x="570" y="410" width="50" height="30" as="geometry" />
        </mxCell>
        <mxCell id="cctHgGJsLOtrq9aGnDQg-8" value="left open or used as one of the inputs to &lt;br&gt;determine&amp;nbsp;if the encoder has input signals" style="text;html=1;align=center;verticalAlign=middle;resizable=0;points=[];autosize=1;strokeColor=none;fillColor=none;" vertex="1" parent="1">
          <mxGeometry x="614" y="560" width="250" height="40" as="geometry" />
        </mxCell>
        <mxCell id="cctHgGJsLOtrq9aGnDQg-18" value="" style="endArrow=none;dashed=1;html=1;dashPattern=1 3;strokeWidth=2;rounded=0;exitX=1;exitY=0.5;exitDx=0;exitDy=0;exitPerimeter=0;entryX=0.002;entryY=0.507;entryDx=0;entryDy=0;entryPerimeter=0;" edge="1" parent="1" source="cctHgGJsLOtrq9aGnDQg-4">
          <mxGeometry width="50" height="50" relative="1" as="geometry">
            <mxPoint x="733" y="450" as="sourcePoint" />
            <mxPoint x="598.9200000000001" y="585.21" as="targetPoint" />
          </mxGeometry>
        </mxCell>
        <mxCell id="cctHgGJsLOtrq9aGnDQg-20" value="" style="endArrow=none;dashed=1;html=1;dashPattern=1 3;strokeWidth=2;rounded=0;" edge="1" parent="1">
          <mxGeometry width="50" height="50" relative="1" as="geometry">
            <mxPoint x="710" y="450" as="sourcePoint" />
            <mxPoint x="850" y="450" as="targetPoint" />
          </mxGeometry>
        </mxCell>
        <mxCell id="cctHgGJsLOtrq9aGnDQg-21" value="" style="triangle;whiteSpace=wrap;html=1;fillColor=#647687;fontColor=#ffffff;strokeColor=#314354;" vertex="1" parent="1">
          <mxGeometry x="560" y="471" width="10" height="10" as="geometry" />
        </mxCell>
      </root>
    </mxGraphModel>
  </diagram>
</mxfile>
